# xmcd
#
# Track frame offsets: 
#        150
#        9410
#        20095
#        30973
#        40922
#        55724
#        66445
#        76066
#        87414
#        98134
#        110175
#        120624
#        131289
#        143025
#        153000
#        164009
#        177114
#        191113
#        201552
#        213676
#        224914
#        237227
#        248745
#        259538
#        271994
#        282817
#        294058
#        303402
#        313959
#        325571
#
# Disc length: 4496 seconds
#
# Revision: 0
# Processed by: cddbd v1.5.2PL0 Copyright (c) Steve Scherf et al.
# Submitted via: ExactAudioCopy v0.99pb4
#
DISCID=b3118e1e
DTITLE=The Louvin Brothers - Country Love Ballads and Ira And Charlie
DYEAR=2008
DGENRE=Ballad
TTITLE0=Are You Wasting My Time
TTITLE1=If I Could Only Win Your Love
TTITLE2=Today
TTITLE3=Read What's In My Heart
TTITLE4=I Wonder If You Know
TTITLE5=Memories And Tears
TTITLE6=On My Way To The Show
TTITLE7=My Heart Was Trampled On The Street
TTITLE8=She Will Get Lonesome
TTITLE9=Red Hen Hop
TTITLE10=Blue
TTITLE11=Send Me The Pillow (You Dream On)
TTITLE12=Don't Let Your Sweet Love Die
TTITLE13=We Could
TTITLE14=Tennessee Waltz
TTITLE15=Are You Teasin' Me?
TTITLE16=Too LAte
TTITLE17=Here Today And Gone Tomorrow
TTITLE18=I Wonder Where You Are TOnight
TTITLE19=Have I Stayed Away Too Long
TTITLE20=Nobody's Darling But Mine
TTITLE21=Why Not Confess
TTITLE22=Making Believe
TTITLE23=Take Me Back Into Your Heart
TTITLE24=You're Learning
TTITLE25=My Curly Headed Baby
TTITLE26=While You're Cheating On Me (I'm Praying For You)
TTITLE27=Call Me
TTITLE28=Dog Sled
TTITLE29=When I Loved You
EXTD=
EXTT0=
EXTT1=
EXTT2=
EXTT3=
EXTT4=
EXTT5=
EXTT6=
EXTT7=
EXTT8=
EXTT9=
EXTT10=
EXTT11=
EXTT12=
EXTT13=
EXTT14=
EXTT15=
EXTT16=
EXTT17=
EXTT18=
EXTT19=
EXTT20=
EXTT21=
EXTT22=
EXTT23=
EXTT24=
EXTT25=
EXTT26=
EXTT27=
EXTT28=
EXTT29=
PLAYORDER=
